<mxfile host="app.diagrams.net" modified="2024-07-10T02:50:46.346Z" agent="Mozilla/5.0 (Windows NT 10.0; Win64; x64) AppleWebKit/537.36 (KHTML, like Gecko) Chrome/126.0.0.0 Safari/537.36" etag="2IBmIkfRFALXj49ZM4iN" version="24.6.4" type="github">
  <diagram id="C5RBs43oDa-KdzZeNtuy" name="Page-1">
    <mxGraphModel dx="880" dy="468" grid="1" gridSize="10" guides="1" tooltips="1" connect="1" arrows="1" fold="1" page="1" pageScale="1" pageWidth="827" pageHeight="1169" math="0" shadow="0">
      <root>
        <mxCell id="WIyWlLk6GJQsqaUBKTNV-0" />
        <mxCell id="WIyWlLk6GJQsqaUBKTNV-1" parent="WIyWlLk6GJQsqaUBKTNV-0" />
        <mxCell id="tHy7Yc0HCfhpq1D-UHLb-18" value="" style="edgeStyle=orthogonalEdgeStyle;rounded=0;orthogonalLoop=1;jettySize=auto;html=1;" edge="1" parent="WIyWlLk6GJQsqaUBKTNV-1" source="tHy7Yc0HCfhpq1D-UHLb-0" target="tHy7Yc0HCfhpq1D-UHLb-2">
          <mxGeometry relative="1" as="geometry" />
        </mxCell>
        <mxCell id="tHy7Yc0HCfhpq1D-UHLb-0" value="Start" style="ellipse;whiteSpace=wrap;html=1;" vertex="1" parent="WIyWlLk6GJQsqaUBKTNV-1">
          <mxGeometry x="365" y="50" width="60" height="40" as="geometry" />
        </mxCell>
        <mxCell id="tHy7Yc0HCfhpq1D-UHLb-19" style="edgeStyle=orthogonalEdgeStyle;rounded=0;orthogonalLoop=1;jettySize=auto;html=1;exitX=1;exitY=0.5;exitDx=0;exitDy=0;" edge="1" parent="WIyWlLk6GJQsqaUBKTNV-1" source="tHy7Yc0HCfhpq1D-UHLb-2" target="tHy7Yc0HCfhpq1D-UHLb-4">
          <mxGeometry relative="1" as="geometry" />
        </mxCell>
        <mxCell id="tHy7Yc0HCfhpq1D-UHLb-20" style="edgeStyle=orthogonalEdgeStyle;rounded=0;orthogonalLoop=1;jettySize=auto;html=1;exitX=0;exitY=0.5;exitDx=0;exitDy=0;entryX=0.5;entryY=0;entryDx=0;entryDy=0;" edge="1" parent="WIyWlLk6GJQsqaUBKTNV-1" source="tHy7Yc0HCfhpq1D-UHLb-2" target="tHy7Yc0HCfhpq1D-UHLb-7">
          <mxGeometry relative="1" as="geometry" />
        </mxCell>
        <mxCell id="tHy7Yc0HCfhpq1D-UHLb-2" value="&lt;div&gt;&lt;span style=&quot;color: rgb(0, 0, 0); font-family: Helvetica; font-size: 12px; font-style: normal; font-variant-ligatures: normal; font-variant-caps: normal; font-weight: 400; letter-spacing: normal; orphans: 2; text-align: center; text-indent: 0px; text-transform: none; widows: 2; word-spacing: 0px; -webkit-text-stroke-width: 0px; white-space: normal; background-color: rgb(251, 251, 251); text-decoration-thickness: initial; text-decoration-style: initial; text-decoration-color: initial; display: inline !important; float: none;&quot;&gt;&lt;br&gt;&lt;/span&gt;&lt;/div&gt;&lt;div&gt;&lt;span style=&quot;color: rgb(0, 0, 0); font-family: Helvetica; font-size: 12px; font-style: normal; font-variant-ligatures: normal; font-variant-caps: normal; font-weight: 400; letter-spacing: normal; orphans: 2; text-align: center; text-indent: 0px; text-transform: none; widows: 2; word-spacing: 0px; -webkit-text-stroke-width: 0px; white-space: normal; background-color: rgb(251, 251, 251); text-decoration-thickness: initial; text-decoration-style: initial; text-decoration-color: initial; display: inline !important; float: none;&quot;&gt;CupIsClean?&lt;/span&gt;&lt;br&gt;&lt;br&gt;&lt;/div&gt;" style="rhombus;whiteSpace=wrap;html=1;" vertex="1" parent="WIyWlLk6GJQsqaUBKTNV-1">
          <mxGeometry x="350" y="120" width="90" height="70" as="geometry" />
        </mxCell>
        <mxCell id="tHy7Yc0HCfhpq1D-UHLb-4" value="CleanCup" style="rounded=1;whiteSpace=wrap;html=1;" vertex="1" parent="WIyWlLk6GJQsqaUBKTNV-1">
          <mxGeometry x="440" y="200" width="70" height="25" as="geometry" />
        </mxCell>
        <mxCell id="tHy7Yc0HCfhpq1D-UHLb-21" style="edgeStyle=orthogonalEdgeStyle;rounded=0;orthogonalLoop=1;jettySize=auto;html=1;exitX=0.5;exitY=1;exitDx=0;exitDy=0;entryX=0.5;entryY=0;entryDx=0;entryDy=0;" edge="1" parent="WIyWlLk6GJQsqaUBKTNV-1" source="tHy7Yc0HCfhpq1D-UHLb-7" target="tHy7Yc0HCfhpq1D-UHLb-8">
          <mxGeometry relative="1" as="geometry" />
        </mxCell>
        <mxCell id="tHy7Yc0HCfhpq1D-UHLb-7" value="BoilWater" style="rounded=1;whiteSpace=wrap;html=1;" vertex="1" parent="WIyWlLk6GJQsqaUBKTNV-1">
          <mxGeometry x="280" y="200" width="70" height="25" as="geometry" />
        </mxCell>
        <mxCell id="tHy7Yc0HCfhpq1D-UHLb-22" style="edgeStyle=orthogonalEdgeStyle;rounded=0;orthogonalLoop=1;jettySize=auto;html=1;exitX=0.5;exitY=1;exitDx=0;exitDy=0;entryX=0.5;entryY=0;entryDx=0;entryDy=0;" edge="1" parent="WIyWlLk6GJQsqaUBKTNV-1" source="tHy7Yc0HCfhpq1D-UHLb-8" target="tHy7Yc0HCfhpq1D-UHLb-9">
          <mxGeometry relative="1" as="geometry" />
        </mxCell>
        <mxCell id="tHy7Yc0HCfhpq1D-UHLb-8" value="Add Coffee" style="rounded=1;whiteSpace=wrap;html=1;" vertex="1" parent="WIyWlLk6GJQsqaUBKTNV-1">
          <mxGeometry x="280" y="260" width="70" height="25" as="geometry" />
        </mxCell>
        <mxCell id="tHy7Yc0HCfhpq1D-UHLb-23" style="edgeStyle=orthogonalEdgeStyle;rounded=0;orthogonalLoop=1;jettySize=auto;html=1;exitX=0.5;exitY=1;exitDx=0;exitDy=0;entryX=0.5;entryY=0;entryDx=0;entryDy=0;" edge="1" parent="WIyWlLk6GJQsqaUBKTNV-1" source="tHy7Yc0HCfhpq1D-UHLb-9" target="tHy7Yc0HCfhpq1D-UHLb-11">
          <mxGeometry relative="1" as="geometry" />
        </mxCell>
        <mxCell id="tHy7Yc0HCfhpq1D-UHLb-9" value="PourWater&lt;div&gt;ToCup&lt;/div&gt;" style="rounded=1;whiteSpace=wrap;html=1;" vertex="1" parent="WIyWlLk6GJQsqaUBKTNV-1">
          <mxGeometry x="280" y="320" width="70" height="50" as="geometry" />
        </mxCell>
        <mxCell id="tHy7Yc0HCfhpq1D-UHLb-24" style="edgeStyle=orthogonalEdgeStyle;rounded=0;orthogonalLoop=1;jettySize=auto;html=1;exitX=1;exitY=0.5;exitDx=0;exitDy=0;entryX=0.5;entryY=0;entryDx=0;entryDy=0;" edge="1" parent="WIyWlLk6GJQsqaUBKTNV-1" source="tHy7Yc0HCfhpq1D-UHLb-11" target="tHy7Yc0HCfhpq1D-UHLb-13">
          <mxGeometry relative="1" as="geometry" />
        </mxCell>
        <mxCell id="tHy7Yc0HCfhpq1D-UHLb-11" value="Stir Coffee" style="rounded=1;whiteSpace=wrap;html=1;" vertex="1" parent="WIyWlLk6GJQsqaUBKTNV-1">
          <mxGeometry x="280" y="400" width="70" height="25" as="geometry" />
        </mxCell>
        <mxCell id="tHy7Yc0HCfhpq1D-UHLb-25" style="edgeStyle=orthogonalEdgeStyle;rounded=0;orthogonalLoop=1;jettySize=auto;html=1;exitX=1;exitY=0.5;exitDx=0;exitDy=0;entryX=1;entryY=0.5;entryDx=0;entryDy=0;" edge="1" parent="WIyWlLk6GJQsqaUBKTNV-1" source="tHy7Yc0HCfhpq1D-UHLb-13" target="tHy7Yc0HCfhpq1D-UHLb-16">
          <mxGeometry relative="1" as="geometry" />
        </mxCell>
        <mxCell id="tHy7Yc0HCfhpq1D-UHLb-26" style="edgeStyle=orthogonalEdgeStyle;rounded=0;orthogonalLoop=1;jettySize=auto;html=1;exitX=0;exitY=0.5;exitDx=0;exitDy=0;entryX=0.5;entryY=0;entryDx=0;entryDy=0;" edge="1" parent="WIyWlLk6GJQsqaUBKTNV-1" source="tHy7Yc0HCfhpq1D-UHLb-13" target="tHy7Yc0HCfhpq1D-UHLb-14">
          <mxGeometry relative="1" as="geometry" />
        </mxCell>
        <mxCell id="tHy7Yc0HCfhpq1D-UHLb-13" value="isSugar |&lt;br&gt;isMilk" style="rhombus;whiteSpace=wrap;html=1;" vertex="1" parent="WIyWlLk6GJQsqaUBKTNV-1">
          <mxGeometry x="350" y="450" width="90" height="70" as="geometry" />
        </mxCell>
        <mxCell id="tHy7Yc0HCfhpq1D-UHLb-27" style="edgeStyle=orthogonalEdgeStyle;rounded=0;orthogonalLoop=1;jettySize=auto;html=1;exitX=0.5;exitY=1;exitDx=0;exitDy=0;entryX=0.5;entryY=0;entryDx=0;entryDy=0;" edge="1" parent="WIyWlLk6GJQsqaUBKTNV-1" source="tHy7Yc0HCfhpq1D-UHLb-14" target="tHy7Yc0HCfhpq1D-UHLb-15">
          <mxGeometry relative="1" as="geometry" />
        </mxCell>
        <mxCell id="tHy7Yc0HCfhpq1D-UHLb-14" value="Add milk | sugar" style="rounded=1;whiteSpace=wrap;html=1;" vertex="1" parent="WIyWlLk6GJQsqaUBKTNV-1">
          <mxGeometry x="280" y="540" width="70" height="40" as="geometry" />
        </mxCell>
        <mxCell id="tHy7Yc0HCfhpq1D-UHLb-28" style="edgeStyle=orthogonalEdgeStyle;rounded=0;orthogonalLoop=1;jettySize=auto;html=1;exitX=0.5;exitY=1;exitDx=0;exitDy=0;entryX=0;entryY=0.75;entryDx=0;entryDy=0;" edge="1" parent="WIyWlLk6GJQsqaUBKTNV-1" source="tHy7Yc0HCfhpq1D-UHLb-15" target="tHy7Yc0HCfhpq1D-UHLb-16">
          <mxGeometry relative="1" as="geometry" />
        </mxCell>
        <mxCell id="tHy7Yc0HCfhpq1D-UHLb-15" value="StirAgain" style="rounded=1;whiteSpace=wrap;html=1;" vertex="1" parent="WIyWlLk6GJQsqaUBKTNV-1">
          <mxGeometry x="280" y="610" width="70" height="25" as="geometry" />
        </mxCell>
        <mxCell id="tHy7Yc0HCfhpq1D-UHLb-29" style="edgeStyle=orthogonalEdgeStyle;rounded=0;orthogonalLoop=1;jettySize=auto;html=1;exitX=0.5;exitY=1;exitDx=0;exitDy=0;entryX=0.5;entryY=0;entryDx=0;entryDy=0;" edge="1" parent="WIyWlLk6GJQsqaUBKTNV-1" source="tHy7Yc0HCfhpq1D-UHLb-16" target="tHy7Yc0HCfhpq1D-UHLb-17">
          <mxGeometry relative="1" as="geometry" />
        </mxCell>
        <mxCell id="tHy7Yc0HCfhpq1D-UHLb-16" value="Drink Coffee" style="rounded=1;whiteSpace=wrap;html=1;" vertex="1" parent="WIyWlLk6GJQsqaUBKTNV-1">
          <mxGeometry x="365" y="660" width="70" height="25" as="geometry" />
        </mxCell>
        <mxCell id="tHy7Yc0HCfhpq1D-UHLb-17" value="END" style="ellipse;whiteSpace=wrap;html=1;" vertex="1" parent="WIyWlLk6GJQsqaUBKTNV-1">
          <mxGeometry x="370" y="720" width="60" height="40" as="geometry" />
        </mxCell>
      </root>
    </mxGraphModel>
  </diagram>
</mxfile>
